# xmcd CD database file
#
# Track frame offsets:
#	150
#	13329
#	25389
#	37500
#	57578
#	68767
#	82879
#	100475
#	110678
#	121708
#	131863
#	147125
#	166928
#	179393
#	188400
#	200103
#	211848
#	225070
#	246680
#	255032
#	268727
#
# Disc length: 3746 seconds
#
# Revision: 1
# Processed by: cddbd v1.5.2PL0 Copyright (c) Steve Scherf et al.
# Submitted via: CDex 1.51
#
DISCID=1f0ea015
DTITLE=Georgie Fame and The Blue Flames - Fame At Last!
DYEAR=1964
DGENRE=R&B
TTITLE0=Get On The Right Track, Baby
TTITLE1=Let The Sunshine In
TTITLE2=Monkey Time
TTITLE3=All About My Girl
TTITLE4=Point Of No Return
TTITLE5=Gimme That Wine
TTITLE6=Pink Champagne
TTITLE7=Monkeying Around
TTITLE8=Pride And Joy
TTITLE9=Green Onions
TTITLE10=I Love The Life I Live
TTITLE11=Im In The Mood For Love (Moody's Mood For Love)
TTITLE12=Yeh Yeh
TTITLE13=Preach And Teach
TTITLE14=In The Meantime
TTITLE15=Telegram
TTITLE16=Black Head Chinaman
TTITLE17=Jelly Jelly
TTITLE18=Red Number Nine
TTITLE19=This Is Always - This Isn't Sometimes
TTITLE20=Yeh Yeh (German Language Version)
EXTD=YEAR: 1964
EXTT0=
EXTT1=
EXTT2=
EXTT3=
EXTT4=
EXTT5=
EXTT6=
EXTT7=
EXTT8=
EXTT9=
EXTT10=
EXTT11=
EXTT12=
EXTT13=
EXTT14=
EXTT15=
EXTT16=
EXTT17=
EXTT18=
EXTT19=
EXTT20=
PLAYORDER=
